<svg width="50" height="50" xmlns="http://www.w3.org/2000/svg">
 <title/>

 <g>
  <title>background</title>
  <rect fill="none" id="canvas_background" height="52" width="52" y="-1" x="-1"/>
 </g>
 <g>
  <title>Layer 1</title>
  <path fill="#fcfcf9" stroke="null" id="svg_1" d="m10.731896,29.793402l3.734283,-25.383211a0.855806,0.904398 0 0 1 1.602663,-0.287004l4.015342,7.961037l-9.352288,17.709178zm26.518939,6.158916l-3.555859,-23.359162a0.857385,0.906066 0 0 0 -1.449502,-0.492246l-22.42149,23.851408l12.406032,7.388697a2.557945,2.703182 0 0 0 2.505838,0l12.514981,-7.388697zm-10.081776,-20.383993l-2.87374,-5.810172a0.855806,0.904398 0 0 0 -1.515819,0l-12.616036,23.891455l17.005595,-18.081283z"/>
 </g>
</svg>